<?xml version="1.0" encoding="UTF-8" standalone="no"?>
<!-- Created with Inkscape (http://www.inkscape.org/) -->

<svg
   xmlns:dc="http://purl.org/dc/elements/1.1/"
   xmlns:cc="http://creativecommons.org/ns#"
   xmlns:rdf="http://www.w3.org/1999/02/22-rdf-syntax-ns#"
   xmlns:svg="http://www.w3.org/2000/svg"
   xmlns="http://www.w3.org/2000/svg"
   xmlns:sodipodi="http://sodipodi.sourceforge.net/DTD/sodipodi-0.dtd"
   xmlns:inkscape="http://www.inkscape.org/namespaces/inkscape"
   width="210mm"
   height="297mm"
   viewBox="0 0 210 297"
   version="1.1"
   id="svg8"
   inkscape:version="0.92.4 (5da689c313, 2019-01-14)"
   sodipodi:docname="scroll.svg">
  <defs
     id="defs2">
    <inkscape:path-effect
       effect="spiro"
       id="path-effect4909"
       is_visible="true" />
    <inkscape:path-effect
       effect="spiro"
       id="path-effect4572"
       is_visible="true" />
    <inkscape:path-effect
       effect="spiro"
       id="path-effect4566"
       is_visible="true" />
    <inkscape:path-effect
       effect="spiro"
       id="path-effect4543"
       is_visible="true" />
    <inkscape:path-effect
       effect="spiro"
       id="path-effect4539"
       is_visible="true" />
    <inkscape:path-effect
       effect="spiro"
       id="path-effect4530"
       is_visible="true" />
    <inkscape:path-effect
       effect="spiro"
       id="path-effect4526"
       is_visible="true" />
    <inkscape:path-effect
       effect="spiro"
       id="path-effect4566-2"
       is_visible="true" />
    <inkscape:path-effect
       effect="spiro"
       id="path-effect4530-3"
       is_visible="true" />
    <inkscape:path-effect
       effect="spiro"
       id="path-effect4530-3-6"
       is_visible="true" />
    <inkscape:path-effect
       effect="spiro"
       id="path-effect4572-4"
       is_visible="true" />
    <inkscape:path-effect
       effect="spiro"
       id="path-effect4909-6"
       is_visible="true" />
  </defs>
  <sodipodi:namedview
     id="base"
     pagecolor="#ffffff"
     bordercolor="#666666"
     borderopacity="1.0"
     inkscape:pageopacity="0.0"
     inkscape:pageshadow="2"
     inkscape:zoom="0.98994949"
     inkscape:cx="-72.666107"
     inkscape:cy="740.91709"
     inkscape:document-units="mm"
     inkscape:current-layer="layer5"
     showgrid="false"
     inkscape:window-width="3732"
     inkscape:window-height="2126"
     inkscape:window-x="97"
     inkscape:window-y="-11"
     inkscape:window-maximized="1" />
  <metadata
     id="metadata5">
    <rdf:RDF>
      <cc:Work
         rdf:about="">
        <dc:format>image/svg+xml</dc:format>
        <dc:type
           rdf:resource="http://purl.org/dc/dcmitype/StillImage" />
        <dc:title></dc:title>
      </cc:Work>
    </rdf:RDF>
  </metadata>
  <g
     inkscape:groupmode="layer"
     id="layer3"
     inkscape:label="linez"
     style="display:none">
    <path
       style="fill:#cccccc;stroke:#e6e6e6;stroke-width:0.26458332px;stroke-linecap:butt;stroke-linejoin:miter;stroke-opacity:1"
       d="M 36.777087,4.4464282 V 168.01562"
       id="path4554"
       inkscape:connector-curvature="0" />
    <path
       style="fill:none;stroke:#cccccc;stroke-width:0.26458332px;stroke-linecap:butt;stroke-linejoin:miter;stroke-opacity:1"
       d="M 70.209076,4.1629459 V 176.52009"
       id="path4568"
       inkscape:connector-curvature="0" />
    <path
       style="fill:none;stroke:#cccccc;stroke-width:0.26458332px;stroke-linecap:butt;stroke-linejoin:miter;stroke-opacity:1"
       d="M 1.403165,45.866869 H 208.47023"
       id="path4593"
       inkscape:connector-curvature="0" />
    <path
       style="fill:none;stroke:#cccccc;stroke-width:0.26458332px;stroke-linecap:butt;stroke-linejoin:miter;stroke-opacity:1"
       d="M 1.0022607,13.456141 H 209.27204"
       id="path4595"
       inkscape:connector-curvature="0" />
    <path
       style="fill:none;stroke:#cccccc;stroke-width:0.27869591px;stroke-linecap:butt;stroke-linejoin:miter;stroke-opacity:1"
       d="M -20.945737,89.195785 H 208.7999"
       id="path4593-1"
       inkscape:connector-curvature="0" />
    <path
       style="fill:none;stroke:#cccccc;stroke-width:0.29368171px;stroke-linecap:butt;stroke-linejoin:miter;stroke-opacity:1"
       d="M -46.337856,117.97345 H 208.77943"
       id="path4593-1-4"
       inkscape:connector-curvature="0" />
  </g>
  <g
     inkscape:groupmode="layer"
     id="layer4"
     inkscape:label="scroll below"
     style="display:inline">
    <path
       style="display:inline;fill:none;stroke:#000080;stroke-width:0.26458332px;stroke-linecap:butt;stroke-linejoin:miter;stroke-opacity:1"
       d="m 103.03977,37.940159 c 0.97562,7.195566 5.25741,13.875207 11.38842,17.766062 3.49611,2.218696 7.49759,3.543101 11.00472,5.744327 4.17316,2.61925 7.58339,6.514172 9.37016,11.105813 0.92672,2.381489 1.41645,4.932241 1.43757,7.4876"
       id="path4528-5"
       inkscape:connector-curvature="0"
       inkscape:path-effect="#path-effect4530-3"
       inkscape:original-d="m 103.03977,37.940159 c -12.495121,-3.808327 8.31509,9.614075 11.38842,17.766062 3.07334,8.151985 7.9982,4.207262 11.00472,5.744327 3.00652,1.537063 6.16319,6.896051 9.37016,11.105813 3.20697,4.209759 1.23738,5.215543 1.43757,7.4876"
       sodipodi:nodetypes="ccssc"
       transform="translate(44.383814,-7.4087622)" />
    <path
       transform="translate(110.55005,0.019274)"
       style="display:inline;fill:none;stroke:#000080;stroke-width:0.26458332px;stroke-linecap:butt;stroke-linejoin:miter;stroke-opacity:1"
       d="m 70.07523,153.60534 c 0.102207,-3.97033 -0.649287,-7.96053 -2.188771,-11.62167 -3.232633,-7.68773 -9.69205,-13.53693 -16.437074,-18.4416 -1.545774,-1.12401 -3.118043,-2.21366 -4.610401,-3.40768 -0.85314,-0.68259 -1.679423,-1.39875 -2.476296,-2.14626"
       id="path4570-9"
       inkscape:connector-curvature="0"
       inkscape:path-effect="#path-effect4572-4"
       inkscape:original-d="m 70.07523,153.60534 c -0.133371,-4.14295 -2.054871,-7.47925 -2.188771,-11.62167 -0.133898,-4.14241 -10.423246,-12.56193 -16.437074,-18.4416 -6.013831,-5.87966 -0.333825,0.6011 -4.610401,-3.40768 -4.276577,-4.00878 -11.028655,3.46613 -2.476296,-2.14626"
       sodipodi:nodetypes="cscsc" />
    <path
       style="display:inline;fill:none;stroke:#000080;stroke-width:0.16757338px;stroke-linecap:butt;stroke-linejoin:miter;stroke-opacity:1"
       d="M 53.212969,98.804551 H 63.276585"
       id="path4803-1-7"
       inkscape:connector-curvature="0" />
    <path
       style="display:inline;fill:none;stroke:#000080;stroke-width:0.13561331px;stroke-linecap:butt;stroke-linejoin:miter;stroke-opacity:1"
       d="m 55.751506,116.24208 h 6.59096"
       id="path4803-1-7-9"
       inkscape:connector-curvature="0" />
    <path
       style="display:inline;fill:none;stroke:#800000;stroke-width:0.20767203px;stroke-linecap:butt;stroke-linejoin:miter;stroke-opacity:1"
       d="m 56.309004,113.33194 h 7.335101"
       id="path4747-2"
       inkscape:connector-curvature="0" />
    <path
       style="display:inline;fill:none;stroke:#800000;stroke-width:0.24066629px;stroke-linecap:butt;stroke-linejoin:miter;stroke-opacity:1"
       d="m 54.588031,94.75913 h 9.851005"
       id="path4747-2-1"
       inkscape:connector-curvature="0" />
    <path
       style="display:inline;fill:none;stroke:#000080;stroke-width:0.26675755px;stroke-linecap:butt;stroke-linejoin:miter;stroke-opacity:1"
       d="m 60.670183,105.90229 h 4.365344"
       id="path4745"
       inkscape:connector-curvature="0" />
    <path
       style="display:inline;fill:none;stroke:#800000;stroke-width:0.26458332px;stroke-linecap:butt;stroke-linejoin:miter;stroke-opacity:1"
       d="m 48.380951,103.94866 h 11.90625"
       id="path4747"
       inkscape:connector-curvature="0" />
    <path
       style="display:inline;fill:none;stroke:#800000;stroke-width:0.28392181px;stroke-linecap:butt;stroke-linejoin:miter;stroke-opacity:1"
       d="M 48.787419,185.5057 H 62.497738"
       id="path4747-29"
       inkscape:connector-curvature="0" />
    <path
       style="display:inline;fill:none;stroke:#800000;stroke-width:0.26680127px;stroke-linecap:butt;stroke-linejoin:miter;stroke-opacity:1"
       d="M 54.182519,201.73512 H 66.289221"
       id="path4747-29-0"
       inkscape:connector-curvature="0" />
    <path
       style="display:inline;fill:none;stroke:#800000;stroke-width:0.32140216px;stroke-linecap:butt;stroke-linejoin:miter;stroke-opacity:1"
       d="M 52.512084,180.32014 H 70.081107"
       id="path4747-29-9"
       inkscape:connector-curvature="0" />
  </g>
  <g
     inkscape:label="scroll itself"
     inkscape:groupmode="layer"
     id="layer1"
     style="display:inline">
    <path
       style="fill:none;stroke:#000080;stroke-width:0.26458332px;stroke-linecap:butt;stroke-linejoin:miter;stroke-opacity:1"
       d="m 112.62413,35.14268 c -0.54983,1.966334 -0.53395,4.087417 0.0452,6.045303 0.57919,1.957886 1.71982,3.746239 3.25092,5.096987 1.06625,0.940658 2.3229,1.672442 3.68283,2.087551 2.45533,0.749472 5.20855,0.415832 7.44549,-0.843708 2.23694,-1.25954 3.93865,-3.416193 4.70465,-5.866418 0.766,-2.450225 0.60262,-5.168001 -0.39209,-7.534623 -0.99472,-2.366622 -2.80326,-4.371283 -5.02326,-5.660452 -2.22951,-1.294694 -4.86695,-1.870782 -7.43441,-1.636052 -2.56746,0.234729 -5.05335,1.277315 -7.02819,2.934705 -1.97485,1.657389 -3.43137,3.921063 -4.13336,6.401823 -0.702,2.480761 -0.64836,5.168176 0.14012,7.622818 1.12154,3.491494 3.74239,6.459269 7.03783,8.068132 3.29545,1.608863 7.21759,1.855267 10.71095,0.739546 3.49336,-1.115721 6.52882,-3.567401 8.41691,-6.711205 1.88808,-3.143804 2.62664,-6.948184 2.12411,-10.580792 -0.56267,-4.067334 -2.6829,-7.899733 -5.8307,-10.536235 -3.14781,-2.636501 -7.29332,-4.051645 -11.39615,-3.888748 -4.10284,0.162896 -8.12361,1.902611 -11.05012,4.782771 -2.92652,2.880159 -4.73032,6.873238 -4.95535,10.973137 -0.21375,3.894436 0.97088,7.807804 3.06787,11.096407 2.097,3.288604 5.07458,5.968777 8.42078,7.972594 3.55206,2.127092 7.51463,3.517014 11.00472,5.744327 4.15126,2.649261 7.57529,6.519969 9.37016,11.105813 0.9315,2.379953 1.42145,4.9319 1.43757,7.4876"
       id="path4528"
       inkscape:connector-curvature="0"
       inkscape:path-effect="#path-effect4530"
       inkscape:original-d="m 112.62413,35.14268 c 2.13842,3.808325 1.15826,7.333436 3.29615,11.14229 2.13789,3.808854 0.94358,1.485931 3.68283,2.087551 2.73925,0.601621 7.13596,-11.286024 6.73479,-19.905201 -0.40117,-8.619178 -12.7761,9.17583 -18.45584,15.323294 -5.67975,6.147461 20.57936,-16.669545 28.2898,-8.484319 8.10674,8.605938 -20.73721,5.139251 -33.23232,1.330925 -12.495117,-3.808327 8.41532,10.917014 11.48865,19.069001 3.07334,8.151985 7.9982,4.207262 11.00472,5.744327 3.00652,1.537063 6.16319,6.896051 9.37016,11.105813 3.20697,4.209759 1.23738,5.215543 1.43757,7.4876"
       sodipodi:nodetypes="csssssscssc"
       transform="translate(-66.145869,-7.4083337)" />
    <path
       style="fill:none;stroke:#000000;stroke-width:0.26458332px;stroke-linecap:butt;stroke-linejoin:miter;stroke-opacity:1"
       d="M 70.09477,72.635628 V 103.47619"
       id="path4549"
       inkscape:connector-curvature="0" />
    <path
       style="fill:none;stroke:#800000;stroke-width:0.26458332px;stroke-linecap:butt;stroke-linejoin:miter;stroke-opacity:1"
       d="m 70.094768,103.47619 c 0.03064,3.47396 -1.26745,6.94329 -3.570959,9.5439 -1.629793,1.84 -3.741354,3.24352 -6.056918,4.06815 -2.315564,0.82462 -4.829794,1.07215 -7.266744,0.75104 -2.115214,-0.27872 -4.188377,-0.99069 -5.951674,-2.19177 -1.763296,-1.20108 -3.205288,-2.90362 -3.970199,-4.89528 -0.639387,-1.66483 -0.796153,-3.50146 -0.524894,-5.26409 0.27126,-1.76264 0.963247,-3.45066 1.942304,-4.94127 1.976056,-3.008534 5.217906,-5.221279 8.786108,-5.694579 1.7841,-0.23665 3.628014,-0.04394 5.312003,0.591038 1.683988,0.634981 3.203062,1.714527 4.328229,3.119169 1.092786,1.364218 1.807652,3.031272 2.023268,4.765852 0.215616,1.73459 -0.0712,3.53134 -0.833655,5.10422 -0.762457,1.57287 -2.000052,2.91464 -3.516048,3.78471 -1.515995,0.87007 -3.305023,1.26202 -5.0441,1.08629 -2.204112,-0.22272 -4.299532,-1.37317 -5.670542,-3.1133 -1.37101,-1.74013 -1.999205,-4.04657 -1.699996,-6.24161"
       id="path4564"
       inkscape:connector-curvature="0"
       inkscape:path-effect="#path-effect4566"
       inkscape:original-d="m 70.094768,103.47619 c -1.09556,3.748 -2.474867,5.79537 -3.570959,9.5439 -1.09609,3.74853 -10.394081,3.7795 -13.323662,4.81919 -2.929577,1.0397 -5.007918,-3.87452 -9.921873,-7.08705 -4.913956,-3.21253 1.606663,-7.2763 1.41741,-10.20536 -0.189252,-2.929047 11.528539,-1.890143 18.42634,-1.984372 6.897801,-0.09423 -5.480392,9.921612 -7.370535,14.741072 -1.890147,4.81946 -4.251968,-6.70934 -7.370538,-9.35491"
       sodipodi:nodetypes="cscssssc" />
    <path
       style="fill:none;stroke:#000080;stroke-width:0.26458332px;stroke-linecap:butt;stroke-linejoin:miter;stroke-opacity:1"
       d="m 70.091432,153.6099 c 0.08409,-3.97235 -0.672285,-7.96051 -2.204973,-11.62623 -3.218837,-7.69848 -9.63509,-13.60833 -16.437074,-18.4416 -2.416294,-1.71694 -4.909766,-3.33534 -7.179696,-5.24159 -2.269929,-1.90625 -4.330529,-4.13085 -5.649243,-6.78553 -1.661813,-3.34537 -2.050377,-7.30412 -1.071957,-10.9091 0.97842,-3.604969 3.314741,-6.823734 6.438356,-8.872188 3.123616,-2.048454 7.006328,-2.908427 10.70297,-2.371797 3.696643,0.536631 7.174191,2.4648 9.588506,5.315102 2.071166,2.445186 3.359516,5.570333 3.477303,8.772643 0.117787,3.20231 -0.9636,6.45785 -3.076398,8.86715 -1.982811,2.26108 -4.865213,3.73593 -7.866924,3.91959 -3.001711,0.18367 -6.080078,-0.95461 -8.169249,-3.11779 -0.99406,-1.02928 -1.764979,-2.27732 -2.212686,-3.63641 -0.447707,-1.35909 -0.569069,-2.82804 -0.321778,-4.23744 0.24729,-1.40941 0.865737,-2.75572 1.796011,-3.84299 0.930275,-1.08727 2.172329,-1.909925 3.544785,-2.314808 2.121858,-0.62596 4.526858,-0.201182 6.305907,1.113768 1.779049,1.31495 2.890755,3.48948 2.914891,5.70161"
       id="path4570"
       inkscape:connector-curvature="0"
       inkscape:path-effect="#path-effect4572"
       inkscape:original-d="m 70.091432,153.6099 c -0.133371,-4.14295 -2.071073,-7.48381 -2.204973,-11.62623 -0.133898,-4.14241 -10.423246,-12.56193 -16.437074,-18.4416 -6.013831,-5.87966 -8.552363,-8.01834 -12.828939,-12.02712 -4.276577,-4.00878 17.105516,-11.22559 25.657875,-16.837983 8.55236,-5.612397 0.267534,11.759593 0.400905,17.639793 0.133368,5.88019 -10.690519,0.53427 -16.036173,0.8018 -5.345655,0.26754 1.871151,-9.3547 2.806332,-14.031648 0.935177,-4.676949 6.147461,4.543318 9.220798,6.815378"
       sodipodi:nodetypes="cscssscsc" />
    <path
       style="display:inline;fill:none;stroke:#000000;stroke-width:0.26458332px;stroke-linecap:butt;stroke-linejoin:miter;stroke-opacity:1"
       d="m 70.091432,153.6099 -0.0241,37.88182"
       id="path4549-0"
       inkscape:connector-curvature="0"
       sodipodi:nodetypes="cc" />
    <path
       style="display:inline;fill:none;stroke:#000000;stroke-width:0.26458332px;stroke-linecap:butt;stroke-linejoin:miter;stroke-opacity:1"
       d="M 180.62451,72.635198 V 103.47519"
       id="path4549-6"
       inkscape:connector-curvature="0" />
    <path
       transform="translate(110.52969,-4.267532e-4)"
       style="display:inline;fill:none;stroke:#501616;stroke-width:0.26458332px;stroke-linecap:butt;stroke-linejoin:miter;stroke-opacity:1"
       d="m 70.094768,103.47619 c 0.0049,3.47095 -1.28884,6.92866 -3.570959,9.5439 -2.693404,3.08656 -6.746748,4.94103 -10.843193,4.96093"
       id="path4564-0"
       inkscape:connector-curvature="0"
       inkscape:path-effect="#path-effect4566-2"
       inkscape:original-d="m 70.094768,103.47619 c -1.09556,3.748 -2.474867,5.79537 -3.570959,9.5439 -1.09609,3.74853 -7.913612,3.92124 -10.843193,4.96093"
       sodipodi:nodetypes="csc" />
    <path
       style="fill:none;stroke:#800000;stroke-width:0.26458332px;stroke-linecap:butt;stroke-linejoin:miter;stroke-opacity:1"
       d="m 166.21031,117.98059 -111.498258,4.3e-4"
       id="path4672"
       inkscape:connector-curvature="0"
       sodipodi:nodetypes="cc" />
    <path
       style="display:inline;fill:none;stroke:#000080;stroke-width:0.26458332px;stroke-linecap:butt;stroke-linejoin:miter;stroke-opacity:1"
       d="m 120.61931,53.276672 c 4.12591,-0.166815 8.16232,-1.981858 11.02513,-4.957643 2.86281,-2.975785 4.52034,-7.079389 4.52742,-11.208665 0.007,-4.250578 -1.73865,-8.477803 -4.74329,-11.484389 -3.00465,-3.006587 -7.23075,-4.755246 -11.48133,-4.750703"
       id="path4528-5-5"
       inkscape:connector-curvature="0"
       inkscape:path-effect="#path-effect4530-3-6"
       inkscape:original-d="m 120.61931,53.276672 c -5.67975,6.147461 7.84211,-24.351534 15.55255,-16.166308 8.10674,8.605938 -3.72951,-12.426766 -16.22462,-16.235092"
       sodipodi:nodetypes="csc"
       transform="translate(44.377914,-7.4148598)" />
    <path
       style="display:inline;fill:none;stroke:#000080;stroke-width:0.26458332px;stroke-linecap:butt;stroke-linejoin:miter;stroke-opacity:1"
       d="M 53.341888,13.460412 H 164.32515"
       id="path4674"
       inkscape:connector-curvature="0" />
    <path
       style="display:inline;fill:none;stroke:#000080;stroke-width:0.26458332px;stroke-linecap:butt;stroke-linejoin:miter;stroke-opacity:1"
       d="M 54.72149,45.86791 H 165.00312"
       id="path4674-3"
       inkscape:connector-curvature="0"
       sodipodi:nodetypes="cc" />
    <path
       style="display:inline;fill:none;stroke:#000080;stroke-width:0.26458332px;stroke-linecap:butt;stroke-linejoin:miter;stroke-opacity:1"
       d="M 46.478261,27.734347 H 65.673363"
       id="path4743"
       inkscape:connector-curvature="0" />
    <path
       style="display:inline;fill:none;stroke:#000000;stroke-width:0.29341328px;stroke-linecap:butt;stroke-linejoin:miter;stroke-opacity:1"
       d="m 180.62528,153.62461 v 37.9271"
       id="path4549-6-1"
       inkscape:connector-curvature="0" />
    <path
       style="display:inline;fill:none;stroke:#000080;stroke-width:0.26506075px;stroke-linecap:butt;stroke-linejoin:miter;stroke-opacity:1"
       d="m 52.406927,89.20366 17.572509,0"
       id="path4674-9"
       inkscape:connector-curvature="0"
       sodipodi:nodetypes="cc" />
    <path
       style="fill:none;stroke:#000080;stroke-width:0.26458332px;stroke-linecap:butt;stroke-linejoin:miter;stroke-opacity:1"
       d="M 53.9561,19.376487 H 79.04427"
       id="path4803"
       inkscape:connector-curvature="0" />
    <path
       style="display:inline;fill:none;stroke:#000080;stroke-width:0.26458332px;stroke-linecap:butt;stroke-linejoin:miter;stroke-opacity:1"
       d="m 55.594205,41.328049 h 25.08817"
       id="path4803-1"
       inkscape:connector-curvature="0" />
    <path
       style="display:inline;fill:none;stroke:#800000;stroke-width:0.26458332px;stroke-linecap:butt;stroke-linejoin:miter;stroke-opacity:1"
       d="m 70.067332,191.49172 c 0.0275,3.56286 -1.223894,7.12231 -3.474947,9.8841 -2.251053,2.76179 -5.484987,4.70534 -8.980183,5.39695 -3.543138,0.7011 -7.342081,0.10339 -10.458993,-1.7215 -3.116912,-1.82489 -5.511229,-4.87425 -6.468264,-8.35699 -0.957035,-3.48274 -0.444793,-7.35928 1.451348,-10.43337 1.896142,-3.07409 5.164587,-5.28373 8.736233,-5.82105 2.593754,-0.3902 5.317186,0.0923 7.599871,1.38423 2.282686,1.29196 4.105208,3.39089 5.027602,5.84629 0.865605,2.30423 0.929138,4.9089 0.13301,7.23805 -0.796129,2.32915 -2.454333,4.36086 -4.599566,5.5678 -2.145233,1.20695 -4.760888,1.56788 -7.141674,0.94289 -2.380786,-0.62499 -4.494115,-2.23918 -5.68418,-4.39383 -1.03997,-1.8829 -1.364433,-4.14995 -0.894355,-6.24897 0.470077,-2.09901 1.730474,-4.01113 3.474185,-5.27062"
       id="path4907"
       inkscape:connector-curvature="0"
       inkscape:path-effect="#path-effect4909"
       inkscape:original-d="m 70.067332,191.49172 c -0.676942,5.50267 -11.777659,9.77784 -12.45513,15.28105 -0.677471,5.5032 1.387078,-21.23049 -6.739676,-26.33291 -8.126753,-5.10241 6.013155,6.75779 12.627473,7.23052 6.614319,0.47274 -11.528009,6.23635 -17.29241,9.35491 -5.764402,3.11857 0.784709,-7.07863 2.57983,-11.51959"
       sodipodi:nodetypes="cssccc" />
    <path
       style="display:inline;fill:none;stroke:#800000;stroke-width:0.26458332px;stroke-linecap:butt;stroke-linejoin:miter;stroke-opacity:1"
       d="m 166.39385,207.04068 -111.498488,4.3e-4"
       id="path4672-5"
       inkscape:connector-curvature="0"
       sodipodi:nodetypes="cc" />
    <path
       transform="translate(110.53549,-0.02188878)"
       style="display:inline;fill:none;stroke:#800000;stroke-width:0.26458332px;stroke-linecap:butt;stroke-linejoin:miter;stroke-opacity:1"
       d="m 70.08979,191.5736 c 0.219371,3.61351 -0.964115,7.29421 -3.24841,10.1027 -2.284295,2.80848 -5.646741,4.71691 -9.229178,5.23821 -0.580931,0.0845 -1.166961,0.13401 -1.753842,0.14806"
       id="path4907-8"
       inkscape:connector-curvature="0"
       inkscape:path-effect="#path-effect4909-6"
       inkscape:original-d="m 70.08979,191.5736 c -0.676942,5.50267 -11.800117,9.8377 -12.477588,15.34091 -0.677471,5.5032 6.372912,5.25048 -1.753842,0.14806"
       sodipodi:nodetypes="csc" />
  </g>
  <g
     inkscape:groupmode="layer"
     id="layer5"
     inkscape:label="scroll fillz"
     style="display:inline">
    <path
       style="opacity:1;fill:#b7bec8;fill-opacity:1;stroke:#000080;stroke-width:0;stroke-miterlimit:4;stroke-dasharray:none"
       d="m 221.39173,172.56608 c 0.0364,-0.10933 0.98746,-0.46452 2.11338,-0.7893 15.29474,-4.41198 28.48084,-15.4469 35.71569,-29.88903 3.27362,-6.53478 5.20205,-12.97939 6.17687,-20.64246 0.39606,-3.11342 0.45089,-10.96801 0.0972,-13.92857 -0.93105,-7.794069 -2.96245,-14.691269 -6.31126,-21.428573 -3.27221,-6.583207 -6.96059,-11.725968 -12.10954,-16.884503 -5.10561,-5.115103 -10.05029,-8.692428 -16.38982,-11.857531 -4.0661,-2.030056 -8.29564,-3.630114 -12.44333,-4.70738 -1.07478,-0.279148 -1.98549,-0.601601 -2.02381,-0.716563 -0.0532,-0.159569 48.25656,-0.20857 204.18628,-0.207111 221.11284,0.0021 205.96079,-0.06276 211.29984,0.904065 6.17004,1.117303 12.84077,3.461085 18.39882,6.464478 2.5572,1.381828 6.847,4.226254 9.20333,6.10242 2.36984,1.886934 7.13894,6.673299 9.08351,9.116411 7.36768,9.256518 11.96841,20.623109 13.1547,32.499997 0.25234,2.5263 0.25234,8.54513 0,11.07143 -0.91552,9.16609 -3.82175,17.94841 -8.53886,25.80357 -2.66712,4.44144 -5.16953,7.63497 -8.96532,11.44145 -3.17894,3.18789 -5.64434,5.21615 -9.2015,7.56998 -7.8678,5.20625 -15.68636,8.19365 -25.625,9.79109 l -2.41071,0.38747 -202.73838,0.0487 c -148.84042,0.0358 -202.72077,-0.004 -202.67212,-0.15006 z"
       id="path4741"
       inkscape:connector-curvature="0"
       transform="scale(0.26458333)" />
    <path
       style="opacity:1;fill:#cccccc;fill-opacity:1;stroke:#800000;stroke-width:0;stroke-miterlimit:4;stroke-dasharray:none"
       d="m 226.99262,444.4386 c 0,-0.29224 0.71249,-0.77972 1.5833,-1.08329 0.87081,-0.30356 3.76868,-1.62176 6.43972,-2.92932 17.40933,-8.52245 28.59784,-24.9657 30.37243,-44.63699 0.62025,-6.87552 0.60618,-118.03942 -0.016,-126.08052 -0.26866,-3.4724 -0.85464,-8.13172 -1.30216,-10.35406 -4.66578,-23.16926 -19.84585,-43.842 -41.94822,-57.12651 -2.82148,-1.69584 -12.48254,-6.73169 -21.46901,-11.19078 -9.25473,-4.5922 -18.63846,-9.63611 -21.64234,-11.6331 -20.47735,-13.61345 -33.39889,-31.4832 -37.98002,-52.52421 -1.29273,-5.93745 -1.52311,-17.48174 -0.46582,-23.34143 4.40542,-24.415637 22.18934,-43.662178 46.14089,-49.93568 20.42456,-5.3497 43.16503,0.642695 58.43188,15.397524 l 3.82613,3.697807 -25.33565,0.01535 c -30.3593,0.01839 -31.88178,0.205052 -41.7902,5.123622 -12.57784,6.243679 -21.65236,17.498837 -25.60847,31.762297 -1.03159,3.71931 -1.18969,5.40705 -1.18286,12.6269 0.009,9.94914 0.89024,14.02294 4.7505,21.97082 3.0226,6.22321 6.15868,10.408 11.73363,15.65736 6.84734,6.44745 15.10439,10.78041 25.15766,13.2017 3.60867,0.86913 12.97446,0.92496 197.76157,1.17893 l 193.9735,0.26659 2.75371,2.32484 c 6.43624,5.43385 14.67519,10.24107 29.77529,17.37313 5.41694,2.55853 12.00819,5.8502 14.64721,7.31483 27.01976,14.99569 43.15952,38.45194 45.99588,66.84694 0.32754,3.27894 0.45063,27.68307 0.34047,67.51213 -0.19152,69.2607 0.0354,64.58566 -3.60432,74.30499 -6.59392,17.60885 -22.0133,30.45678 -40.83818,34.02781 -3.5508,0.67358 -28.00303,0.76367 -207.26315,0.76367 -141.85458,0 -203.23741,-0.16048 -203.23741,-0.53135 z"
       id="path4887"
       inkscape:connector-curvature="0"
       transform="scale(0.26458333)" />
    <path
       style="opacity:1;fill:#535d6c;fill-opacity:1;stroke:#800000;stroke-width:0;stroke-miterlimit:4;stroke-dasharray:none"
       d="m 200.85477,172.19531 c -5.18618,-0.67427 -10.68075,-2.38446 -16.03601,-4.99121 -14.54284,-7.07892 -24.60425,-20.06762 -27.81342,-35.90551 -1.25133,-6.17559 -0.80107,-16.3578 0.98834,-22.34998 3.11686,-10.437437 8.92134,-18.977678 17.07344,-25.120471 9.00022,-6.781873 17.98175,-9.759423 29.19707,-9.679398 14.44735,0.103087 27.70822,6.699125 36.21249,18.012305 2.18732,2.909778 5.18068,8.334904 5.92919,10.745994 l 0.3528,1.13643 h -35.62414 c -33.41237,0 -35.65326,0.0549 -36.09314,0.88388 -1.00679,1.89744 -1.73116,8.84568 -1.42497,13.66856 1.08558,17.09919 12.34873,31.79511 28.37493,37.02304 3.37411,1.10067 4.46589,1.16604 23.91305,1.4317 l 20.37751,0.27836 -3.2394,2.62725 c -12.11248,9.82357 -27.1692,14.19166 -42.18774,12.23905 z"
       id="path4889"
       inkscape:connector-curvature="0"
       transform="scale(0.26458333)" />
    <path
       style="opacity:1;fill:#000055;fill-opacity:1;stroke:#800000;stroke-width:0;stroke-miterlimit:4;stroke-dasharray:none"
       d="m 202.57832,437.3581 c -12.4753,-3.06539 -23.28117,-13.21316 -26.79589,-25.16397 -1.32939,-4.52022 -1.55635,-9.93465 -0.61184,-14.596 1.04539,-5.1592 2.2641,-8.02338 5.11232,-12.0148 9.61582,-13.47537 28.64366,-15.25561 40.15721,-3.7571 2.6834,2.67991 6.5525,8.46501 6.5525,9.79735 0,0.16657 -10.05733,0.36204 -22.34962,0.43438 l -22.34963,0.13152 -0.14576,4.71258 c -0.27558,8.9098 2.58104,15.91839 9.21869,22.61768 3.29208,3.32266 4.87027,4.48088 8.35221,6.12963 6.71427,3.17932 7.59349,3.29599 24.24366,3.21693 l 14.89975,-0.0708 -1.26269,1.03059 c -2.03124,1.65787 -7.60055,4.78778 -10.60661,5.96084 -7.17842,2.80126 -16.86983,3.42493 -24.4143,1.57113 z"
       id="path4891"
       inkscape:connector-curvature="0"
       transform="scale(0.26458333)" />
    <path
       style="opacity:1;fill:#6f7c91;fill-opacity:1;stroke:#800000;stroke-width:0;stroke-miterlimit:4;stroke-dasharray:none"
       d="m 225.98247,155.08371 c 0,-0.26264 1.56051,-1.29756 3.46779,-2.29981 9.67338,-5.08322 16.95385,-14.37558 19.78653,-25.25439 2.17196,-8.34129 1.15182,-19.70435 -2.49007,-27.736379 -3.06682,-6.763712 -8.98581,-13.98423 -14.95563,-18.244205 -2.94872,-2.104157 -10.14825,-5.858946 -12.32613,-6.428476 -0.58225,-0.152261 -1.05863,-0.528638 -1.05863,-0.836394 0,-0.400257 4.48749,-0.521561 15.76268,-0.426093 l 15.76269,0.133465 1.93058,2.525381 c 11.30591,14.789204 15.28883,35.098371 10.47945,53.435321 -2.06396,7.86932 -5.7665,15.10343 -11.16462,21.81368 l -3.05327,3.79544 h -11.07068 c -6.61809,0 -11.07069,-0.19207 -11.07069,-0.47754 z"
       id="path4893"
       inkscape:connector-curvature="0"
       transform="scale(0.26458333)" />
    <path
       style="opacity:1;fill:#6f7c91;fill-opacity:1;stroke:#800000;stroke-width:0;stroke-miterlimit:4;stroke-dasharray:none"
       d="m 229.80152,397.11397 c -0.5414,-3.86265 -2.2247,-8.43398 -4.26656,-11.58667 -2.30993,-3.56659 -6.90777,-7.85269 -10.22955,-9.53597 -1.35021,-0.6842 -2.45492,-1.46745 -2.45492,-1.74057 0,-0.31239 4.77915,-0.49656 12.88572,-0.49656 h 12.88572 l 1.68531,2.65165 c 3.56813,5.61405 5.37321,12.05047 5.37321,19.15939 v 3.94785 h -7.77134 -7.77133 z"
       id="path4895"
       inkscape:connector-curvature="0"
       transform="scale(0.26458333)" />
    <path
       style="opacity:1;fill:#000055;fill-opacity:1;stroke:#800000;stroke-width:0;stroke-miterlimit:4;stroke-dasharray:none"
       d="m 204.76927,154.80825 c -10.98121,-2.45335 -22.09212,-12.15903 -26.79515,-23.40628 -2.77549,-6.63756 -3.71715,-15.35386 -2.44684,-22.64855 l 0.55751,-3.20147 35.66994,0.12964 35.66993,0.12964 0.68298,2.77792 c 0.98346,4.00006 0.93429,13.62259 -0.0913,17.87588 -3.20917,13.30844 -13.67226,24.3683 -26.36384,27.86755 -4.17162,1.15017 -12.77868,1.39267 -16.88319,0.47567 z"
       id="path4897"
       inkscape:connector-curvature="0"
       transform="scale(0.26458333)" />
    <path
       style="opacity:1;fill:#6c5353;fill-opacity:1;stroke:#800000;stroke-width:0;stroke-miterlimit:4;stroke-dasharray:none"
       d="m 202.95079,444.97511 c -3.76817,-0.46743 -9.35247,-1.73483 -12.55413,-2.84925 -7.3189,-2.54755 -12.09183,-5.4907 -17.2995,-10.66745 -5.3991,-5.36705 -8.39161,-10.43358 -10.20015,-17.26958 -1.02426,-3.87155 -1.28661,-11.66356 -0.5372,-15.95551 3.33031,-19.07304 18.92553,-35.02947 37.91241,-38.7905 3.62439,-0.71794 11.76897,-0.63011 15.53572,0.16754 3.94652,0.83572 8.50961,2.5626 11.90555,4.50561 2.89273,1.65509 7.96806,5.83998 9.46485,7.80429 l 0.90444,1.18694 -20.33385,-0.0619 c -19.76459,-0.0602 -20.40705,-0.0407 -22.94849,0.69634 -10.54854,3.0592 -18.15103,11.241 -20.81412,22.40018 -1.07794,4.51689 -0.83716,12.09737 0.52914,16.6588 4.07887,13.61745 15.47472,23.57991 30.35076,26.53319 2.37841,0.47218 5.17539,0.56724 15.406,0.52364 7.67582,-0.0327 12.36217,0.0743 12.14286,0.27716 -1.07965,0.99889 -8.30751,3.25222 -13.56511,4.22901 -2.78114,0.51669 -13.37796,0.92428 -15.89918,0.61153 z"
       id="path4899"
       inkscape:connector-curvature="0"
       transform="scale(0.26458333)" />
    <path
       style="opacity:1;fill:#ac9393;fill-opacity:1;stroke:#800000;stroke-width:0;stroke-miterlimit:4;stroke-dasharray:none"
       d="m 225.45079,427.3504 c 0,-0.19096 1.00447,-0.84555 2.23215,-1.45465 8.14159,-4.03937 13.757,-10.06238 16.99725,-18.23102 5.26387,-13.27019 1.71607,-28.91459 -8.84545,-39.00501 -1.5183,-1.45058 -3.75154,-3.31039 -4.96275,-4.1329 -2.16239,-1.46846 -6.86149,-3.88992 -8.98599,-4.63053 -2.7442,-0.95663 -1.00369,-1.1368 10.07631,-1.04306 l 11.15438,0.0944 2.04955,2.85714 c 4.32951,6.03546 7.97707,14.46418 9.45165,21.84071 0.94892,4.74692 0.85969,14.10083 -0.18084,18.95703 -1.8702,8.72837 -5.8214,16.44011 -11.43961,22.32726 l -2.64142,2.76786 h -7.45261 c -4.5881,0 -7.45262,-0.13346 -7.45262,-0.34721 z"
       id="path4901"
       inkscape:connector-curvature="0"
       transform="scale(0.26458333)" />
    <path
       style="opacity:1;fill:#550000;fill-opacity:1;stroke:#800000;stroke-width:0;stroke-miterlimit:4;stroke-dasharray:none"
       d="m 208.96181,427.35643 c -4.49705,-0.82423 -9.70726,-3.02164 -13.14094,-5.54219 -2.59361,-1.90388 -6.55559,-6.26067 -8.17115,-8.9854 -2.86855,-4.83795 -4.34178,-10.27007 -4.34178,-16.00903 v -3.40792 h 22.11879 22.11878 l 0.25696,0.80357 c 0.14133,0.44197 0.44137,2.08929 0.66677,3.66072 l 0.4098,2.85714 8.10731,0.096 c 9.27509,0.10982 8.55834,-0.26007 7.35188,3.79408 -2.5014,8.40565 -8.73808,15.83073 -16.63865,19.80919 -3.89349,1.96063 -7.97151,2.94856 -12.7845,3.09716 -2.35714,0.0728 -5.03611,-0.005 -5.95327,-0.17331 z"
       id="path4903"
       inkscape:connector-curvature="0"
       transform="scale(0.26458333)" />
    <path
       style="opacity:1;fill:#b7bec8;fill-opacity:1;stroke:#800000;stroke-width:0;stroke-miterlimit:4;stroke-dasharray:none"
       d="m 225.15818,438.39688 c 0.0682,-0.20468 1.44774,-0.90587 3.06559,-1.5582 3.69638,-1.49039 7.89271,-4.01326 11.58464,-6.96476 11.4814,-9.17877 18.19937,-25.78005 16.73499,-41.35509 -2.08705,-22.19769 -17.11539,-41.02582 -38.85112,-48.67431 -2.10047,-0.73913 -3.87927,-1.52455 -3.95288,-1.74539 -0.0983,-0.29476 6.61645,-0.40152 25.25306,-0.40152 h 25.3869 l -3e-4,27.23214 c -1.7e-4,15.83772 -0.15373,28.87593 -0.36702,31.16071 -1.13499,12.15878 -6.11963,23.19681 -14.37496,31.83203 -3.75333,3.92606 -6.46737,6.15625 -10.80886,8.88192 l -3.12928,1.96462 h -5.33241 c -3.53958,0 -5.2907,-0.12512 -5.20835,-0.37215 z"
       id="path4905"
       inkscape:connector-curvature="0"
       transform="scale(0.26458333)" />
    <path
       style="opacity:1;fill:#cccccc;fill-opacity:1;stroke:#800000;stroke-width:0;stroke-miterlimit:4;stroke-dasharray:none"
       d="m 224.40984,781.13543 c 0.0976,-0.29288 2.03044,-1.291 4.29515,-2.21804 18.21411,-7.45578 31.02877,-22.88707 35.68148,-42.96733 1.03889,-4.48368 1.0557,-5.6033 1.23234,-82.07489 0.12519,-54.19915 0.01,-79.50505 -0.38423,-84.0952 -1.63013,-19.00086 -7.5787,-36.2037 -18.07629,-52.2754 -11.01449,-16.86307 -29.83039,-35.26554 -52.38591,-51.2349 -18.73732,-13.26605 -22.37711,-15.9355 -26.92525,-19.74722 -18.50085,-15.50522 -27.00801,-31.56759 -27.00801,-50.9938 0,-15.78198 5.48845,-29.2073 16.51079,-40.38707 8.60132,-8.72417 19.47677,-14.38907 31.61409,-16.46742 4.72758,-0.80953 14.85032,-0.80577 19.17058,0.007 11.12368,2.093 21.39069,7.30455 30.03813,15.24739 l 3.49931,3.21419 -20.6719,0.27943 -20.6719,0.27944 -4.54569,1.39254 c -31.4876,9.64599 -45.78198,47.50609 -26.57201,70.37863 6.67708,7.95013 15.7805,13.22491 27.58216,15.98189 l 4.54569,1.06191 192.02255,0.26487 192.02256,0.26486 4.45211,3.82873 c 2.44867,2.1058 7.06589,5.76184 10.2605,8.12454 19.99497,14.78811 24.12787,17.93032 29.80449,22.66015 8.07398,6.72735 20.27109,18.93786 25.71501,25.7432 11.47588,14.34596 19.13289,29.11262 22.99395,44.34457 3.25082,12.82433 3.05637,6.48741 3.05637,99.60216 v 84.60028 l -1.38634,5.05076 c -0.76246,2.77792 -2.63109,7.55894 -4.15253,10.62448 -6.98566,14.07564 -19.17679,23.93775 -35.37231,28.61476 l -4.04061,1.16687 -206.24089,0.13051 c -144.40915,0.0914 -206.18768,-0.0291 -206.06339,-0.40201 z"
       id="path5010"
       inkscape:connector-curvature="0"
       transform="scale(0.26458333)" />
    <path
       style="opacity:1;fill:#6c5353;fill-opacity:1;stroke:#800000;stroke-width:0;stroke-miterlimit:4;stroke-dasharray:none"
       d="m 195.27745,780.66183 c -20.75987,-4.49341 -35.99527,-18.99315 -41.21408,-39.22401 -1.68133,-6.5177 -1.60335,-16.65672 0.18016,-23.42377 4.60513,-17.47298 17.36908,-30.20553 34.72047,-34.63504 5.39688,-1.37774 15.38536,-1.26602 20.96067,0.23444 8.32602,2.24074 15.37029,6.4899 21.20356,12.79015 l 3.41284,3.68605 -25.30042,0.13093 -25.30043,0.13093 -3.297,3.08418 c -3.98733,3.72995 -7.29222,8.89414 -9.17171,14.33162 -1.22669,3.54887 -1.39978,4.80897 -1.42227,10.35407 -0.0213,5.24164 0.17432,6.95654 1.15202,10.10152 3.34144,10.7485 11.63121,19.22675 22.56097,23.07394 l 4.04061,1.42226 25.73814,0.25254 25.73814,0.25254 -3.86901,3.37375 c -7.6864,6.70249 -15.64193,11.05142 -24.48622,13.38552 -6.88403,1.81677 -18.91655,2.13505 -25.64644,0.67838 z"
       id="path5014"
       inkscape:connector-curvature="0"
       transform="scale(0.26458333)" />
    <path
       style="opacity:1;fill:#ac9393;fill-opacity:1;stroke:#800000;stroke-width:0;stroke-miterlimit:4;stroke-dasharray:none"
       d="m 217.75335,761.53898 c 0,-0.23238 1.87509,-1.35751 4.16688,-2.5003 11.71911,-5.84367 19.44591,-17.09204 21.09122,-30.70375 0.92139,-7.62274 -0.55157,-16.03915 -4.02737,-23.01225 -4.57567,-9.17963 -12.12895,-16.43311 -21.57,-20.71389 -1.75795,-0.79709 -3.19627,-1.67428 -3.19627,-1.9493 0,-0.32329 8.85209,-0.50005 25.04244,-0.50005 h 25.04244 l -0.22763,24.875 c -0.24198,26.44413 -0.28767,26.98796 -2.95945,35.22907 -1.50202,4.63299 -5.58985,12.45723 -8.55428,16.37315 l -2.51696,3.32483 h -16.14551 c -8.88003,0 -16.14551,-0.19013 -16.14551,-0.42251 z"
       id="path5016"
       inkscape:connector-curvature="0"
       transform="scale(0.26458333)" />
    <path
       style="opacity:1;fill:#550000;fill-opacity:1;stroke:#800000;stroke-width:0;stroke-miterlimit:4;stroke-dasharray:none"
       d="m 196.11676,760.45868 c -8.55421,-2.30702 -17.00616,-8.97738 -20.94267,-16.52817 -6.75581,-12.95862 -4.58985,-28.03525 5.51613,-38.3962 l 3.59551,-3.68623 25.69892,0.13094 25.69891,0.13093 1.61216,3.04789 c 0.8867,1.67633 2.21917,5.0856 2.96105,7.57614 1.81037,6.07746 1.94573,15.09811 0.31645,21.08805 -3.22828,11.86859 -12.63013,22.04832 -23.87992,25.85569 -5.76923,1.95253 -14.94164,2.30066 -20.57654,0.78096 z"
       id="path5018"
       inkscape:connector-curvature="0"
       transform="scale(0.26458333)" />
  </g>
  <g
     inkscape:groupmode="layer"
     id="layer2"
     inkscape:label="scrollbar"
     style="display:none">
    <path
       style="fill:none;stroke:#000000;stroke-width:0.26458332px;stroke-linecap:butt;stroke-linejoin:miter;stroke-opacity:1"
       d="M 62.875157,33.338611 19.577493,34.942227"
       id="path4533"
       inkscape:connector-curvature="0" />
    <path
       style="fill:none;stroke:#000000;stroke-width:0.26458332px;stroke-linecap:butt;stroke-linejoin:miter;stroke-opacity:1"
       d="M 63.476512,25.721429 19.978397,24.518716"
       id="path4535"
       inkscape:connector-curvature="0" />
    <path
       style="fill:none;stroke:#000000;stroke-width:0.26458332px;stroke-linecap:butt;stroke-linejoin:miter;stroke-opacity:1"
       d="m 19.978397,24.518716 c -0.951594,0.933721 -1.650758,2.122301 -2.004521,3.407687 -0.663129,2.409454 -0.04044,5.133726 1.603617,7.015824"
       id="path4537"
       inkscape:connector-curvature="0"
       inkscape:path-effect="#path-effect4539"
       inkscape:original-d="m 19.978397,24.518716 c -0.667909,1.135631 -1.336083,2.271526 -2.004521,3.407687 -0.668439,1.13616 1.069342,4.676952 1.603617,7.015824" />
    <path
       style="fill:none;stroke:#000000;stroke-width:0.26458332px;stroke-linecap:butt;stroke-linejoin:miter;stroke-opacity:1"
       d="m 63.476512,25.721429 c 0.294654,1.244095 0.396462,2.53367 0.300678,3.808589 -0.09815,1.306384 -0.403811,2.596963 -0.902033,3.808593"
       id="path4541"
       inkscape:connector-curvature="0"
       inkscape:path-effect="#path-effect4543"
       inkscape:original-d="m 63.476512,25.721429 c 0.100489,1.269264 0.200716,2.538796 0.300678,3.808589 0.09996,1.269797 -0.601091,2.538797 -0.902033,3.808593" />
    <path
       style="opacity:1;fill:#aa0000;fill-opacity:1;stroke:#666666;stroke-width:0;stroke-miterlimit:4;stroke-dasharray:none"
       d="m 73.832413,130.98426 c -2.886532,-3.73525 -4.743308,-7.7386 -5.718818,-12.33023 -0.426444,-2.00723 -0.477632,-2.62638 -0.473925,-5.73242 0.0035,-2.89104 0.07013,-3.78975 0.39279,-5.29424 1.043144,-4.86391 3.174408,-9.153638 6.456364,-12.995135 1.034881,-1.211317 1.222444,-1.353432 1.785715,-1.353019 0.346157,2.54e-4 28.191881,0.763011 61.879381,1.695015 33.6875,0.932004 65.66964,1.81668 71.07142,1.965945 5.40179,0.149266 13.94107,0.390974 18.97618,0.537128 5.03511,0.146155 9.62456,0.265736 10.19878,0.265736 h 1.04403 l 0.28607,1.473214 c 0.61361,3.159996 0.74489,4.749966 0.74085,8.973216 -0.006,5.84055 -0.62324,9.64774 -2.43803,15.02808 l -0.73227,2.17095 -2.1628,0.11479 c -1.18954,0.0631 -36.87709,1.39206 -79.30566,2.95316 -42.42857,1.5611 -78.147324,2.88289 -79.375002,2.93732 l -2.232143,0.099 z"
       id="path4547"
       inkscape:connector-curvature="0"
       transform="scale(0.26458333)" />
  </g>
</svg>
